HIERARCHY
ROOT Hips
{
	OFFSET 0.000000 0.000000 0.000000
	CHANNELS 6 Xposition Yposition Zposition Zrotation Yrotation Xrotation 
	JOINT LHipJoint
	{
		OFFSET 0.000000 0.000000 0.000000
		CHANNELS 3 Zrotation Yrotation Xrotation
		JOINT LeftUpLeg
		{
			OFFSET 1.363060 -1.794630 0.839290
			CHANNELS 3 Zrotation Yrotation Xrotation
			JOINT LeftLeg
			{
				OFFSET 2.448110 -6.726130 0.000000
				CHANNELS 3 Zrotation Yrotation Xrotation
				JOINT LeftFoot
				{
					OFFSET 2.562200 -7.039590 0.000000
					CHANNELS 3 Zrotation Yrotation Xrotation
					JOINT LeftToeBase
					{
						OFFSET 0.157640 -0.433110 2.322550
						CHANNELS 3 Zrotation Yrotation Xrotation
						End Site
						{
							OFFSET 0.000000 0.000000 0.000000
						}
					}
				}
			}
		}
	}
	JOINT RHipJoint
	{
		OFFSET 0.000000 0.000000 0.000000
		CHANNELS 3 Zrotation Yrotation Xrotation
		JOINT RightUpLeg
		{
			OFFSET -1.305520 -1.794630 0.839290
			CHANNELS 3 Zrotation Yrotation Xrotation
			JOINT RightLeg
			{
				OFFSET -2.542530 -6.985550 0.000000
				CHANNELS 3 Zrotation Yrotation Xrotation
				JOINT RightFoot
				{
					OFFSET -2.568260 -7.056230 0.000000
					CHANNELS 3 Zrotation Yrotation Xrotation
					JOINT RightToeBase
					{
						OFFSET -0.164730 -0.452590 2.363150
						CHANNELS 3 Zrotation Yrotation Xrotation
						End Site
						{
							OFFSET 0.000000 0.000000 0.000000
						}
					}
				}
			}
		}
	}
	JOINT LowerBack
	{
		OFFSET 0.000000 0.000000 0.000000
		CHANNELS 3 Zrotation Yrotation Xrotation
		JOINT Spine
		{
			OFFSET 0.028270 2.035590 -0.193380
			CHANNELS 3 Zrotation Yrotation Xrotation
			JOINT Spine1
			{
				OFFSET 0.056720 2.048850 -0.042750
				CHANNELS 3 Zrotation Yrotation Xrotation
				JOINT Neck
				{
					OFFSET 0.000000 0.000000 0.000000
					CHANNELS 3 Zrotation Yrotation Xrotation
					JOINT Neck1
					{
						OFFSET -0.054170 1.746240 0.172020
						CHANNELS 3 Zrotation Yrotation Xrotation
						JOINT Head
						{
							OFFSET 0.104070 1.761360 -0.123970
							CHANNELS 3 Zrotation Yrotation Xrotation
							End Site
							{
								OFFSET 0.000000 0.000000 0.000000
							}
						}
					}
				}
				JOINT LeftShoulder
				{
					OFFSET 0.000000 0.000000 0.000000
					CHANNELS 3 Zrotation Yrotation Xrotation
					JOINT LeftArm
					{
						OFFSET 3.362410 1.200890 -0.311210
						CHANNELS 3 Zrotation Yrotation Xrotation
						JOINT LeftForeArm
						{
							OFFSET 4.983000 -0.000000 -0.000000
							CHANNELS 3 Zrotation Yrotation Xrotation
							JOINT LeftHand
							{
								OFFSET 3.483560 -0.000000 -0.000000
								CHANNELS 3 Zrotation Yrotation Xrotation
								JOINT LeftFingerBase
								{
									OFFSET 0.000000 0.000000 0.000000
									CHANNELS 3 Zrotation Yrotation Xrotation
									JOINT LeftHandIndex1
									{
										OFFSET 0.715260 -0.000000 -0.000000
										CHANNELS 3 Zrotation Yrotation Xrotation
										End Site
										{
											OFFSET 0.000000 0.000000 0.000000
										}
									}
								}
								JOINT LThumb
								{
									OFFSET 0.000000 0.000000 0.000000
									CHANNELS 3 Zrotation Yrotation Xrotation
									End Site
									{
										OFFSET 0.000000 0.000000 0.000000
									}
								}
							}
						}
					}
				}
				JOINT RightShoulder
				{
					OFFSET 0.000000 0.000000 0.000000
					CHANNELS 3 Zrotation Yrotation Xrotation
					JOINT RightArm
					{
						OFFSET -3.136600 1.374050 -0.404650
						CHANNELS 3 Zrotation Yrotation Xrotation
						JOINT RightForeArm
						{
							OFFSET -5.241900 -0.000000 -0.000000
							CHANNELS 3 Zrotation Yrotation Xrotation
							JOINT RightHand
							{
								OFFSET -3.444170 -0.000000 -0.000000
								CHANNELS 3 Zrotation Yrotation Xrotation
								JOINT RightFingerBase
								{
									OFFSET 0.000000 0.000000 0.000000
									CHANNELS 3 Zrotation Yrotation Xrotation
									JOINT RightHandIndex1
									{
										OFFSET -0.622530 -0.000000 -0.000000
										CHANNELS 3 Zrotation Yrotation Xrotation
										End Site
										{
											OFFSET 0.000000 0.000000 0.000000
										}
									}
								}
								JOINT RThumb
								{
									OFFSET 0.000000 0.000000 0.000000
									CHANNELS 3 Zrotation Yrotation Xrotation
									End Site
									{
										OFFSET 0.000000 0.000000 0.000000
									}
								}
							}
						}
					}
				}
			}
		}
	}
}
MOTION
Frames: 12
Frame Time: 0.008333
17.104137 17.976227 -13.001960 3.669198 -69.592744 7.553825 5.354762 1.820952 0.609827 -25.895320 -3.851234 -24.025396 -1.224001 8.524315 21.261261 -5.875915 19.553588 -7.273835 0.434300 4.229200 11.722300 -9.186346 -3.300599 -0.526269 20.156406 3.347819 -10.305949 -1.482024 -8.205681 25.436013 2.841022 -14.470618 -7.317744 -0.219200 3.014100 -8.317900 -6.818113 1.927830 2.150094 -3.741971 1.739949 5.077958 0.794863 1.828936 -7.385123 0.649176 4.334471 -7.263317 2.336981 5.000040 5.062973 -2.110200 2.503700 2.898400 -5.618007 -5.930600 -0.623308 -73.750333 -3.567123 17.007947 15.343254 -19.446896 -3.806192 -0.647468 0.432874 -15.863235 13.736411 -18.949155 -4.846400 -7.125000 0.000000 0.000000 -9.086200 10.090300 7.450600 8.589494 6.801550 -0.814718 74.538557 -9.793157 43.512695 -26.230019 31.368194 -10.008735 0.747459 2.966359 -7.920256 -14.771871 -25.087006 7.599100 7.125000 0.000000 0.000000 16.240700 -58.035200 -5.271300 
17.109699 17.980474 -13.013285 3.641548 -69.764353 7.449085 5.321142 1.843067 0.627486 -25.832687 -3.743853 -23.790861 -1.258218 8.418380 21.040562 -5.879967 19.538576 -7.425028 0.449100 4.299700 11.921300 -9.173975 -3.322843 -0.542074 20.094217 3.261545 -9.945352 -1.469229 -8.138461 25.328122 2.836500 -14.443307 -7.507114 -0.331200 3.698600 -10.230200 -6.711838 2.011410 2.185934 -3.633529 1.849615 5.096209 0.781407 1.883639 -7.404186 -0.007147 4.315637 -7.024832 2.674183 4.966921 4.806312 -1.901900 2.473100 2.739400 -5.637468 -5.977686 -0.621076 -73.989914 -3.680756 16.777085 15.289419 -19.347147 -3.777596 -0.619505 0.450971 -15.408586 13.506769 -18.917266 -4.750400 -7.125000 0.000000 0.000000 -9.251200 10.141400 7.579800 8.603111 6.784076 -0.821942 74.451603 -9.714030 43.355196 -26.146586 31.283516 -9.947098 0.656116 2.942205 -7.971255 -13.696917 -24.518992 6.891500 7.125000 0.000000 0.000000 17.101700 -57.237500 -5.229900 
17.117384 18.002114 -13.028757 4.742966 -69.998780 6.377032 5.354201 1.850373 0.629540 -26.358626 -3.508608 -23.863339 -1.207376 8.535502 21.368620 -5.879221 19.576304 -7.591590 0.339200 3.742600 10.353500 -9.141117 -3.334175 -0.557680 19.550888 3.299328 -9.843203 -1.435699 -8.022419 25.020383 2.912451 -14.681951 -7.093222 -0.405100 4.086200 -11.319400 -6.947465 2.043127 2.227016 -3.718434 1.872300 5.047496 0.834351 1.915453 -7.486929 -0.149522 4.334806 -6.938690 2.645011 4.999277 4.764351 -1.885200 2.484300 2.707100 -5.633254 -5.972214 -0.629448 -74.062796 -3.566351 17.066118 15.364050 -19.452660 -3.818120 -0.618054 0.440933 -15.589795 13.455396 -18.985825 -4.746000 -7.125000 0.000000 0.000000 -9.286400 10.086800 7.619900 8.606719 6.786294 -0.817990 74.481345 -9.543052 43.355522 -26.056598 31.192947 -9.897280 0.833954 3.014481 -8.050452 -15.690989 -25.785131 8.294600 7.125000 0.000000 0.000000 15.619900 -58.953600 -5.409600 
17.133362 17.995339 -13.054342 4.951864 -70.049941 6.139428 5.373606 1.880017 0.638940 -26.682572 -2.968216 -24.059129 -1.142178 8.635691 21.642611 -5.900770 19.651462 -7.185076 0.198000 2.865400 7.904100 -9.106054 -3.361697 -0.587159 19.482472 2.865535 -9.387701 -1.396638 -7.858000 24.701875 2.771028 -14.064378 -7.109069 -0.236300 3.128400 -8.636500 -6.803983 1.972950 2.328037 -3.868938 1.785415 4.973335 0.668660 1.866002 -7.587801 0.155249 4.339247 -7.153400 2.630476 5.020906 5.123215 -1.931100 2.519100 2.870000 -5.600970 -5.922924 -0.634925 -73.798654 -3.358641 17.686186 15.497589 -19.670097 -3.890939 -0.639098 0.399506 -16.346155 13.567723 -18.963942 -4.781800 -7.125000 0.000000 0.000000 -9.197000 10.124800 7.537400 8.594544 6.802041 -0.814292 74.685559 -9.504132 43.299417 -26.042017 31.179790 -9.902065 1.079750 3.055932 -7.598096 -18.422593 -27.040508 10.205500 7.125000 0.000000 0.000000 13.211600 -60.851700 -5.155400 
17.143171 17.997361 -13.080735 3.654158 -69.905293 7.366333 5.373570 1.887543 0.643123 -26.222248 -2.837395 -24.243352 -1.101129 8.707045 21.831820 -5.887227 19.588753 -6.933737 0.168100 2.641100 7.281100 -9.107911 -3.382920 -0.600036 20.064404 2.422738 -9.097797 -1.342441 -7.730610 24.379891 2.815706 -14.226958 -7.178201 -0.305700 3.555000 -9.828000 -6.267876 1.872836 2.239874 -3.792313 1.688762 4.984821 0.449427 1.784608 -7.466035 0.056254 4.438248 -7.044263 2.939429 5.116871 4.979638 -1.812900 2.567500 2.797800 -5.581918 -5.957281 -0.621143 -73.600376 -3.464540 17.727876 15.517157 -19.698753 -3.892894 -0.656332 0.364122 -16.620982 13.785268 -18.639111 -4.782500 -7.125000 0.000000 0.000000 -9.031100 10.455700 7.336400 8.578540 6.782877 -0.819797 74.693675 -9.583586 43.404613 -26.226726 31.352382 -10.018590 1.095429 3.019377 -7.398850 -18.679297 -26.785043 10.257400 7.125000 0.000000 0.000000 12.736400 -60.631000 -4.899400 
17.147721 18.005856 -13.105308 2.979172 -69.943123 8.012342 5.375992 1.879276 0.638129 -25.850808 -2.927591 -24.343710 -1.080776 8.753649 21.940760 -5.900047 19.609592 -6.849949 0.182700 2.752800 7.591300 -9.109470 -3.393923 -0.602062 20.342377 2.354697 -8.849349 -1.291372 -7.620942 24.082347 2.869659 -14.431584 -7.244626 -0.330100 3.692700 -10.213700 -6.112653 1.866412 2.087306 -3.656642 1.689176 5.002790 0.472452 1.776528 -7.343204 0.105985 4.564504 -6.791020 2.866195 5.255503 4.734049 -1.841800 2.623200 2.686500 -5.578655 -5.992671 -0.614902 -73.643113 -3.558298 17.426647 15.564857 -19.748572 -3.906214 -0.644083 0.325991 -16.436691 13.812694 -18.187371 -4.673700 -7.125000 0.000000 0.000000 -8.999900 10.951300 7.218200 8.566952 6.766578 -0.818050 74.604318 -9.606391 43.668610 -26.384173 31.497451 -10.117735 1.034994 2.998721 -7.930894 -18.293972 -26.263798 9.866600 7.125000 0.000000 0.000000 12.858700 -59.999000 -4.753400 
17.153789 18.009092 -13.124622 2.997779 -70.134436 7.909597 5.363179 1.891394 0.644791 -25.761824 -2.944524 -24.224187 -1.089235 8.721520 21.871722 -5.942180 19.714732 -6.877775 0.190200 2.808700 7.746600 -9.105159 -3.396741 -0.609156 20.300416 2.587892 -8.470755 -1.257928 -7.526310 23.854012 2.925804 -14.632823 -7.241835 -0.281800 3.414200 -9.434100 -6.088749 1.912121 2.148875 -3.609231 1.743969 4.947271 0.489602 1.804266 -7.452572 0.556384 4.525509 -7.011356 2.344290 5.252581 5.105203 -2.080700 2.633400 2.875300 -5.582277 -5.946398 -0.627200 -73.791460 -3.478296 17.073939 15.632429 -19.843591 -3.949089 -0.607403 0.346730 -16.154053 13.460568 -18.451395 -4.605700 -7.125000 0.000000 0.000000 -9.260500 10.715300 7.478200 8.562319 6.795663 -0.800697 74.553101 -9.585763 43.772664 -26.362207 31.483684 -10.112129 1.085891 3.023650 -8.070103 -18.953660 -26.640871 10.369500 7.125000 0.000000 0.000000 12.302400 -60.545900 -4.704500 
17.162486 17.995440 -13.144342 3.070955 -70.321957 7.784904 5.359463 1.857571 0.655576 -25.145520 -4.359827 -23.857806 -1.187030 8.653991 21.624667 -6.119928 20.209953 -8.277988 0.400000 4.060700 11.247400 -9.104306 -3.382025 -0.620889 20.265356 2.824304 -8.158185 -1.243829 -7.476213 23.758099 2.967907 -14.795724 -7.363573 -0.235900 3.126000 -8.629800 -6.000653 1.945476 2.190028 -3.614270 1.789673 4.905501 0.424091 1.824163 -7.518742 0.822710 4.482308 -7.167027 2.031348 5.223001 5.274712 -2.226900 2.621900 2.975200 -5.586493 -5.928512 -0.630836 -73.857178 -3.499674 16.895571 15.617800 -19.825597 -3.955063 -0.599273 0.414925 -15.912074 13.320178 -19.154468 -4.725700 -7.125000 0.000000 0.000000 -9.386600 9.960500 7.728700 8.558127 6.821870 -0.787170 74.515080 -9.502044 43.880010 -26.399314 31.522792 -10.148109 1.082286 3.063221 -7.946840 -18.831204 -27.172165 10.478800 7.125000 0.000000 0.000000 12.815800 -61.080000 -5.067500 
17.170373 17.986339 -13.166993 3.348699 -70.529410 7.521605 5.357221 1.838849 0.656896 -24.944818 -5.012958 -23.689112 -1.237663 8.618866 21.487918 -6.304631 20.741163 -9.078426 0.441200 4.262100 11.815200 -9.102199 -3.380657 -0.629003 20.178209 2.909301 -8.027120 -1.242821 -7.454486 23.717233 2.993276 -14.877300 -7.239686 -0.271100 3.349500 -9.253500 -5.965060 2.015985 2.090227 -3.673825 1.890248 4.889314 0.351838 1.873131 -7.477091 0.846704 4.479359 -6.917389 1.999978 5.187195 5.026859 -2.244300 2.591900 2.850300 -5.578313 -5.950841 -0.626763 -73.808688 -3.470468 17.270781 15.660261 -19.886795 -3.981943 -0.596346 0.412094 -15.972860 13.284914 -19.207661 -4.723700 -7.125000 0.000000 0.000000 -9.412300 9.914200 7.759500 8.546200 6.803237 -0.798089 74.646337 -9.483916 43.762050 -26.493085 31.600982 -10.207397 1.030619 3.061599 -8.069195 -18.307900 -27.015985 10.124100 7.125000 0.000000 0.000000 13.352100 -60.798400 -5.194400 
17.179980 17.973395 -13.194398 3.639433 -70.709332 7.236898 5.341409 1.851693 0.657866 -25.054056 -4.680580 -23.719065 -1.250029 8.562636 21.349133 -6.344802 20.835083 -8.908926 0.415800 4.139100 11.468400 -9.098426 -3.401697 -0.640795 20.144014 2.652941 -8.063974 -1.267776 -7.469204 23.754640 3.090402 -15.210542 -6.553622 -0.531900 4.673500 -12.979700 -6.029961 2.061571 2.062634 -3.684050 1.941046 4.835984 0.380595 1.909524 -7.514809 0.762725 4.466587 -6.646814 2.014698 5.144631 4.818260 -2.228800 2.560500 2.728400 -5.574046 -5.964056 -0.626910 -73.798522 -3.385296 17.529246 15.719515 -19.973025 -4.014524 -0.566699 0.373810 -16.094605 12.975851 -18.879122 -4.524300 -7.125000 0.000000 0.000000 -9.614600 10.322100 7.850500 8.541100 6.781107 -0.810447 74.753211 -9.479743 43.609628 -26.512605 31.606077 -10.207126 0.995720 3.023377 -8.063339 -17.922952 -26.466748 9.724000 7.125000 0.000000 0.000000 13.445700 -60.133700 -5.018400 
17.191103 17.965811 -13.226959 3.781579 -70.735351 7.096588 5.327947 1.868811 0.652934 -25.202487 -3.864909 -23.994057 -1.236192 8.519589 21.257023 -6.201938 20.403995 -8.098896 0.381400 3.966000 10.981100 -9.089017 -3.427573 -0.647087 20.155777 2.223082 -8.170138 -1.293257 -7.484695 23.804102 3.109159 -15.248408 -5.925146 -0.647600 5.147800 -14.330600 -6.170758 2.009662 2.108481 -3.598275 1.847079 4.774836 0.534908 1.882163 -7.580637 0.774103 4.484570 -6.443088 1.840092 5.156789 4.613106 -2.287300 2.552000 2.632300 -5.574581 -5.972955 -0.629177 -73.787623 -3.356249 17.803324 15.734234 -19.990552 -4.014195 -0.596943 0.347304 -16.462995 13.256473 -18.709162 -4.590900 -7.125000 0.000000 0.000000 -9.407400 10.477400 7.646400 8.533747 6.767035 -0.807849 74.633343 -9.484795 43.833030 -26.642907 31.727226 -10.287723 0.888139 2.992730 -8.072993 -16.706517 -25.873555 8.858000 7.125000 0.000000 0.000000 14.509900 -59.246800 -5.116800 
17.196564 17.970766 -13.257094 5.058363 -70.806276 5.928029 5.332797 1.865350 0.642691 -25.657923 -3.499863 -24.120321 -1.246548 8.477349 21.144760 -6.069275 20.051683 -7.724798 0.395600 4.038500 11.185000 -9.065102 -3.424935 -0.640218 19.650383 2.440031 -8.141868 -1.302189 -7.485241 23.850803 2.991132 -14.774744 -6.118578 -0.335100 3.720300 -10.291100 -6.614772 2.014931 2.020199 -3.630691 1.830880 4.769883 0.753353 1.897804 -7.551179 0.664346 4.435023 -6.487372 1.750407 5.110227 4.628436 -2.299600 2.524400 2.641300 -5.571862 -5.966481 -0.636451 -73.830992 -3.392669 18.250043 15.775431 -20.030424 -4.023398 -0.646116 0.320197 -16.803830 13.789012 -18.568070 -4.756500 -7.125000 0.000000 0.000000 -9.024800 10.571700 7.309500 8.529914 6.776791 -0.798916 74.461083 -9.499074 43.793305 -26.735036 31.820584 -10.348955 0.809352 2.974081 -7.805887 -15.695737 -25.563708 8.211500 7.125000 0.000000 0.000000 15.501500 -58.706500 -5.275000 
